<svg id="icon" height="512" viewBox="0 0 128 128" width="512" xmlns="http://www.w3.org/2000/svg"><path d="m122.274 101.235-61.781-57.706-7.493-7.01-16.484 16.481 7.01 7.51 57.719 61.769a14.883 14.883 0 1 0 21.03-21.042zm-10.188 16.89a6.177 6.177 0 1 1 6.177-6.177 6.18 6.18 0 0 1 -6.177 6.177z" fill="#d9e2e9"/><path d="m126.952 111a14.638 14.638 0 0 1 -2.166 2.755 14.868 14.868 0 0 1 -11.854 4.306 5.953 5.953 0 0 1 -.846.064 6.1 6.1 0 0 1 -3.639-1.192c-.013.013-.013.013-.013 0a14.7 14.7 0 0 1 -5.049-3.537l-57.719-61.768-3.755-4.028-5.4 5.4 7.01 7.51 57.719 61.769a14.876 14.876 0 0 0 25.712-11.279z" fill="#c1cdd3"/><path d="m112.124 128h-.282a15.737 15.737 0 0 1 -11.328-5.038l-64.73-69.281a1 1 0 0 1 .024-1.389l16.48-16.48a1 1 0 0 1 1.39-.023l69.279 64.711a15.886 15.886 0 0 1 -10.833 27.5zm-74.218-74.977 64.069 68.572a13.883 13.883 0 1 0 19.615-19.629l-68.57-64.056zm74.18 66.1a7.177 7.177 0 1 1 7.177-7.177 7.185 7.185 0 0 1 -7.177 7.179zm0-12.354a5.177 5.177 0 1 0 5.177 5.177 5.183 5.183 0 0 0 -5.177-5.175z" fill="#2f3a5a"/><path d="m53.723 10.045a30.884 30.884 0 1 1 -51.678 13.891l17.915 18.114 16.528-5.292 5.645-16.447-18.1-18.3a30.831 30.831 0 0 1 29.69 8.034z" fill="#d9e2e9"/><path d="m53.727 53.717a30.872 30.872 0 0 1 -52.67-20.146 30.884 30.884 0 0 0 60.59-9.957 30.877 30.877 0 0 1 -7.92 30.103z" fill="#c1cdd3"/><path d="m31.885 63.752a31.857 31.857 0 0 1 -30.806-40.073 1 1 0 0 1 1.677-.445l17.483 17.677 15.466-4.952 5.281-15.385-17.66-17.854a1 1 0 0 1 .456-1.67 31.972 31.972 0 0 1 30.649 8.288 31.869 31.869 0 0 1 -22.546 54.414zm-29.285-37.828a29.884 29.884 0 1 0 23.4-23.338l16.845 17.022a1 1 0 0 1 .235 1.028l-5.645 16.447a1 1 0 0 1 -.642.627l-16.528 5.29a1 1 0 0 1 -1.016-.249z" fill="#2f3a5a"/></svg>